# xmcd
#
# Track frame offsets: 
#        150
#        14435
#        33315
#        51291
#        64671
#        83356
#        99263
#        110413
#        127758
#        144920
#
# Disc length: 2174 seconds
#
# Revision: 0
# Processed by: cddbd v1.5.2PL0 Copyright (c) Steve Scherf et al.
# Submitted via: ExactAudioCopy v0.99pb4
#
DISCID=70087c0a
DTITLE=Drew Nelson - 30 Odd Years
DYEAR=2006
DGENRE=Blues
TTITLE0=Nothin' But Buttons
TTITLE1=The Morning Light
TTITLE2=Big Black Ship
TTITLE3=I Would If I Could
TTITLE4=It Feels So Right
TTITLE5=Don't Wanna Be Your Dog
TTITLE6=He'll Have To Go
TTITLE7=Gone But Not Forgotten
TTITLE8=Something To Believe In
TTITLE9=Black Girl
EXTD=
EXTT0=
EXTT1=
EXTT2=
EXTT3=
EXTT4=
EXTT5=
EXTT6=
EXTT7=
EXTT8=
EXTT9=
PLAYORDER=
